<svg aria-hidden="true" style="width:0;height:0;position:absolute;overflow:hidden" xmlns="http://www.w3.org/2000/svg"><defs><symbol id="icon-search" viewBox="0 0 32 32"><path fill="none" stroke="#fff" style="stroke:var(--color1,#fff)" stroke-linejoin="round" stroke-linecap="round" stroke-width="2.667" d="M14.667 25.333c5.891 0 10.667-4.776 10.667-10.667S20.558 3.999 14.667 3.999 4 8.775 4 14.666s4.776 10.667 10.667 10.667zM28 28.001l-5.8-5.8"/></symbol><symbol id="play-treiler" viewBox="0 0 28 32"><path d="M26.526 13.083c2.246 1.296 2.246 4.538 0 5.834L5.052 31.315c-2.246 1.297-5.053-.324-5.053-2.917V3.602c0-2.593 2.807-4.214 5.053-2.917l21.474 12.398z"/></symbol><symbol id="icon-film-h" viewBox="0 0 24 24"><path d="M19.82 2H4.18A2.18 2.18 0 0 0 2 4.18v15.64A2.18 2.18 0 0 0 4.18 22h15.64A2.18 2.18 0 0 0 22 19.82V4.18A2.18 2.18 0 0 0 19.82 2ZM7 2v20M17 2v20M2 12h20M2 7h5M2 17h5M17 17h5M17 7h5" stroke="#fff" stroke-width="2" stroke-linecap="round" stroke-linejoin="round"/></symbol><symbol id="icon-film" viewBox="0 0 32 32"><path stroke="#fff" style="stroke:var(--color1,#fff)" stroke-linejoin="round" stroke-linecap="round" stroke-width="2.667" d="M9.333 2.667v26.667M22.667 2.667v26.667M26.427 2.667H5.574a2.907 2.907 0 0 0-2.907 2.907v20.853a2.907 2.907 0 0 0 2.907 2.907h20.853a2.907 2.907 0 0 0 2.907-2.907V5.574a2.907 2.907 0 0 0-2.907-2.907zM2.667 16h26.667M2.667 9.333h6.667M2.667 22.667h6.667M22.667 22.667h6.667M22.667 9.333h6.667"/></symbol><symbol id="icon-heart" viewBox="0 0 34 32"><path fill="#ff6b08" style="fill:var(--color1,#ff6b08)" d="m17.231 31.705-2.412-2.412C5.859 21.367.001 16.025.001 9.478.001 4.136 4.136.001 9.478.001c2.929 0 5.858 1.378 7.754 3.618 1.895-2.24 4.825-3.618 7.754-3.618 5.342 0 9.477 4.135 9.477 9.477 0 6.548-5.858 11.889-14.818 19.815l-2.412 2.412z"/></symbol><symbol id="icon-red" viewBox="0 0 32 32"><path fill="#ec0000" style="fill:var(--color1,#ec0000)" d="M3.688 31.788a3.513 3.513 0 0 1-2.484-5.997L25.791 1.204a3.513 3.513 0 1 1 4.968 4.968L6.172 30.759a3.502 3.502 0 0 1-2.484 1.029z"/><path fill="#ec0000" style="fill:var(--color1,#ec0000)" d="M28.276 31.788a3.502 3.502 0 0 1-2.484-1.029L1.205 6.172a3.513 3.513 0 1 1 4.968-4.968L30.76 25.791a3.513 3.513 0 0 1-2.484 5.997z"/></symbol><symbol id="github" viewBox="0 0 32 32"><path d="M16 .395c-8.836 0-16 7.163-16 16 0 7.069 4.585 13.067 10.942 15.182.8.148 1.094-.347 1.094-.77 0-.381-.015-1.642-.022-2.979-4.452.968-5.391-1.888-5.391-1.888-.728-1.849-1.776-2.341-1.776-2.341-1.452-.993.11-.973.11-.973 1.606.113 2.452 1.649 2.452 1.649 1.427 2.446 3.743 1.739 4.656 1.33.143-1.034.558-1.74 1.016-2.14-3.554-.404-7.29-1.777-7.29-7.907 0-1.747.625-3.174 1.649-4.295-.166-.403-.714-2.03.155-4.234 0 0 1.344-.43 4.401 1.64a15.353 15.353 0 0 1 4.005-.539c1.359.006 2.729.184 4.008.539 3.054-2.07 4.395-1.64 4.395-1.64.871 2.204.323 3.831.157 4.234 1.026 1.12 1.647 2.548 1.647 4.295 0 6.145-3.743 7.498-7.306 7.895.574.497 1.085 1.47 1.085 2.963 0 2.141-.019 3.864-.019 4.391 0 .426.288.925 1.099.768C27.421 29.457 32 23.462 32 16.395c0-8.837-7.164-16-16-16z"/></symbol><symbol id="upa" viewBox="0 0 48 32"><path style="fill:var(--color1,#000)" d="M0 0h48v32H0z"/><path fill="#c00" style="fill:var(--color2,#c00)" d="M0 0h48v16H0z"/></symbol><symbol id="icon-arrow-up" viewBox="0 0 32 32"><path d="M16 1 1 16h9v16h12V16h9z"/></symbol><symbol id="sign-in" viewBox="0 0 24 24"><path d="M11.016 6.984 9.61 8.39l2.578 2.625H2.016v1.969h10.172L9.61 15.609l1.406 1.406 4.969-5.016zm9 12H12V21h8.016q.797 0 1.383-.586t.586-1.43V5.015q0-.844-.586-1.43t-1.383-.586H12v2.016h8.016v13.969z"/></symbol><symbol id="sign-out" viewBox="0 0 24 24"><path d="M3.984 5.016v13.969H12v2.016H3.984q-.797 0-1.383-.609t-.586-1.406V5.017q0-.797.586-1.406t1.383-.609H12v2.016H3.984zm13.032 1.968L21.985 12l-4.969 5.016-1.406-1.453 2.578-2.578H8.016v-1.969h10.172L15.61 8.391z"/></symbol><symbol id="face" viewBox="0 0 32 32"><path d="M10 6a6 6 0 1 1 12 0 6 6 0 0 1-12 0zm14.002 8h-1.107l-6.222 12.633L19 15l-3-3-3 3 2.327 11.633L9.105 14H7.998C4 14 4 16.687 4 20v10h24V20c0-3.313 0-6-3.998-6z"/></symbol><symbol id="icon-press" viewBox="0 0 32 32"><path d="M7.928 10.613c-.22-.743-.43-1.488-.589-2.201-1.041-.616-1.75-1.737-1.75-3.033 0-1.949 1.585-3.533 3.533-3.533s3.533 1.585 3.533 3.533c0 .268-.036.526-.092.777.338.745.611 1.583.851 2.434a5.333 5.333 0 0 0 1.087-3.211C14.501 2.407 12.094 0 9.122 0S3.745 2.407 3.745 5.379c0 2.559 1.79 4.69 4.183 5.234z"/><path d="M4.213 23.347c1.326-1.433 2.813-.872 4.805-.569 1.711.263 3.396-.217 3.284-1.141-.177-1.495-.427-2.164-.994-4.1-.453-1.54-1.312-4.316-2.094-6.97-1.048-3.55-1.351-5.199.044-5.611 1.503-.438 2.364 1.697 3.145 4.658.889 3.37 1.357 4.857 1.619 4.779.461-.132-.17-1.574 1.038-1.929 1.509-.439 1.801.741 2.224.622.423-.127.279-1.322 1.483-1.674 1.21-.349 1.817 1.14 2.316.991.494-.146.483-.683 1.228-.897.747-.222 3.558 1.036 5.167 6.532 2.019 6.91-.256 8.195.434 10.534l-9.013 3.427c-.73-1.755-2.989-1.884-4.988-3.003-2.014-1.134-3.382-3.342-8.631-3.235-1.974.04-1.881-1.534-1.065-2.416z"/></symbol></defs></svg>